<svg width="24" height="24" viewBox="0 0 24 24" fill="none" xmlns="http://www.w3.org/2000/svg">
    <path fill-rule="evenodd" clip-rule="evenodd"
        d="M16.6601 4.60001L19.4001 7.34001C20.166 8.06978 20.1973 9.28167 19.4701 10.05L10.4701 19.05C10.1441 19.3732 9.71685 19.5745 9.26006 19.62L5.09006 20H5.00006C4.73425 20.0015 4.47878 19.8972 4.29006 19.71C4.07909 19.4998 3.97278 19.2066 4.00006 18.91L4.43006 14.74C4.47556 14.2832 4.67682 13.856 5.00006 13.53L14.0001 4.53001C14.7759 3.87456 15.9198 3.90467 16.6601 4.60001ZM13.3201 8.00001L16.0001 10.68L18.0001 8.73001L15.2701 6.00001L13.3201 8.00001Z"
        fill="#212B36" />
</svg>