<svg width="18" height="18" viewBox="0 0 18 18" fill="none" xmlns="http://www.w3.org/2000/svg">
    <g opacity="0.48">
        <path
            d="M13.1701 15.75C13.0501 15.7505 12.9318 15.7222 12.8251 15.6675L9.00005 13.665L5.17506 15.6675C4.92165 15.8008 4.6145 15.7781 4.38338 15.6092C4.15225 15.4402 4.03748 15.1544 4.08755 14.8725L4.83755 10.65L1.74755 7.65003C1.5511 7.45398 1.47897 7.16547 1.56005 6.90003C1.64874 6.6281 1.88437 6.43028 2.16755 6.39003L6.44255 5.76753L8.32506 1.92003C8.45037 1.66129 8.71256 1.49695 9.00005 1.49695C9.28755 1.49695 9.54974 1.66129 9.67505 1.92003L11.5801 5.76003L15.8551 6.38253C16.1382 6.42278 16.3739 6.6206 16.4626 6.89253C16.5436 7.15797 16.4715 7.44648 16.2751 7.64253L13.1851 10.6425L13.9351 14.865C13.9897 15.1521 13.8726 15.4448 13.6351 15.615C13.4992 15.7102 13.3357 15.7577 13.1701 15.75Z"
            fill="#919EAB" />
    </g>
</svg>