<svg width="16" height="15" viewBox="0 0 16 15" fill="none" xmlns="http://www.w3.org/2000/svg">
    <path
        d="M12.1701 14.75C12.0501 14.7505 11.9318 14.7222 11.8251 14.6675L8.00005 12.665L4.17506 14.6675C3.92165 14.8008 3.6145 14.7781 3.38338 14.6092C3.15225 14.4402 3.03748 14.1544 3.08755 13.8725L3.83755 9.65003L0.747555 6.65003C0.551097 6.45398 0.478968 6.16547 0.560055 5.90003C0.648738 5.6281 0.884372 5.43028 1.16755 5.39003L5.44255 4.76753L7.32506 0.920031C7.45037 0.661288 7.71256 0.496948 8.00005 0.496948C8.28755 0.496948 8.54974 0.661288 8.67505 0.920031L10.5801 4.76003L14.8551 5.38253C15.1382 5.42278 15.3739 5.6206 15.4626 5.89253C15.5436 6.15797 15.4715 6.44648 15.2751 6.64253L12.1851 9.64253L12.9351 13.865C12.9897 14.1521 12.8726 14.4448 12.6351 14.615C12.4992 14.7102 12.3357 14.7577 12.1701 14.75Z"
        fill="#FFC107" />
</svg>